<?xml version="1.0" encoding="UTF-8" standalone="no"?>
<!DOCTYPE svg PUBLIC "-//W3C//DTD SVG 1.1//EN" "http://www.w3.org/Graphics/SVG/1.1/DTD/svg11.dtd">
<!-- Created with Vectornator (http://vectornator.io/) -->
<svg height="100%" stroke-miterlimit="10" style="fill-rule:nonzero;clip-rule:evenodd;stroke-linecap:round;stroke-linejoin:round;" version="1.1" viewBox="0 0 96 28" width="100%" xml:space="preserve" xmlns="http://www.w3.org/2000/svg" xmlns:vectornator="http://vectornator.io" xmlns:xlink="http://www.w3.org/1999/xlink">
<defs/>
<clipPath id="ArtboardFrame">
<rect height="28" width="96" x="0" y="0"/>
</clipPath>
<g clip-path="url(#ArtboardFrame)" id="layer4" vectornator:layerName="layer4">
<path d="M0-8.4e-05L0 13.7597L2.88086 13.7597L2.88086 8.53507L6.25977 8.53507L9.45117 13.7558L7.63867 18.7206L10.6406 18.7206L11.9141 15.0566L17.3789 15.0566L18.6445 18.6972L18.6445 25.8671L21.5234 25.8671L21.5234 20.6425L24.9023 20.6425L28.0957 25.8671L31.3379 25.8671L27.6172 20.0859C28.548 19.8645 29.2872 19.4054 29.834 18.7089C30.3808 18.0059 30.6543 17.1743 30.6543 16.2109C30.6543 14.8894 30.2082 13.8768 29.3164 13.1737C28.4246 12.4642 27.158 12.1093 25.5176 12.1093L19.2227 12.1093L16.4121 4.37882L12.8711 4.37882L10.623 10.5409L8.97461 7.97843C9.9056 7.75708 10.6445 7.29809 11.1914 6.60148C11.7383 5.89835 12.0117 5.06502 12.0117 4.10148C12.0117 2.77987 11.5658 1.76749 10.6738 1.06437C9.7819 0.354734 8.51562-8.4e-05 6.875-8.4e-05L0-8.4e-05ZM2.88086 2.23624L6.57227 2.23624C7.41862 2.23624 8.05339 2.40226 8.47656 2.73429C8.89974 3.06632 9.11133 3.56111 9.11133 4.21867C9.11133 4.87622 8.90299 5.38729 8.48633 5.75187C8.06966 6.11645 7.45768 6.29874 6.65039 6.29874L2.88086 6.29874L2.88086 2.23624ZM14.6426 6.58781C14.7308 6.86602 14.8151 7.14655 14.8965 7.43156C14.9779 7.71656 15.0652 7.99904 15.1602 8.27726L16.707 12.7968L12.5859 12.7968L14.0918 8.36906C14.1461 8.21298 14.2353 7.94437 14.3574 7.56437C14.4796 7.18436 14.5747 6.85924 14.6426 6.58781ZM21.5234 14.3456L25.2148 14.3456C26.0611 14.3456 26.696 14.5117 27.1191 14.8437C27.5423 15.1756 27.7539 15.6706 27.7539 16.328C27.7539 16.9855 27.5455 17.4967 27.1289 17.8612C26.7123 18.2258 26.1001 18.4062 25.293 18.4062L21.5234 18.4062L21.5234 14.3456Z" fill="#bf0d3e" fill-rule="nonzero" opacity="1" stroke="none" vectornator:layerName="path"/>
<g fill="#bf0d3e" opacity="1" stroke="none" vectornator:layerName="Text 1">
<path d="M37.0811 22.9333C37.0794 23.625 36.8862 24.167 36.5013 24.5593C36.1163 24.9515 35.5846 25.1469 34.9061 25.1453C34.2407 25.1437 33.7191 24.9452 33.3413 24.5498C32.9636 24.1544 32.7755 23.6122 32.7771 22.9231C32.7788 22.2367 32.9694 21.6973 33.3491 21.305C33.7287 20.9128 34.2591 20.7174 34.9403 20.7191C35.6372 20.7207 36.1687 20.912 36.5347 21.2929C36.9007 21.6738 37.0828 22.2206 37.0811 22.9333ZM35.9213 22.9306C35.9225 22.423 35.8405 22.0546 35.6754 21.8254C35.5102 21.5962 35.2699 21.4812 34.9543 21.4805C34.6176 21.4797 34.3648 21.5994 34.196 21.8396C34.0271 22.0799 33.942 22.442 33.9409 22.9259C33.9398 23.4019 34.0211 23.7644 34.1849 24.0133C34.3486 24.2622 34.5857 24.3871 34.896 24.3878C35.2379 24.3886 35.494 24.2676 35.6642 24.0247C35.8344 23.7818 35.9201 23.4171 35.9213 22.9306Z"/>
<path d="M39.266 21.5578L39.2576 25.0767L38.153 25.0741L38.1614 21.5552L37.5381 21.5537L37.5398 20.8041L38.1631 20.8056L38.1642 20.3598C38.1651 19.9732 38.2684 19.6868 38.474 19.5006C38.6795 19.3143 38.9914 19.2217 39.4096 19.2227C39.6252 19.2232 39.8593 19.2448 40.1116 19.2875L40.1099 20.0015C40.0048 19.9776 39.897 19.9655 39.7865 19.9653C39.5972 19.9648 39.4636 20.002 39.3859 20.0767C39.3081 20.1515 39.269 20.2836 39.2685 20.4729L39.2677 20.8083L40.108 20.8103L40.1062 21.5598L39.266 21.5578Z"/>
<path d="M45.3873 20.4323L45.3762 25.0913L44.2125 25.0885L44.2236 20.4295L42.4286 20.4252L42.4307 19.5258L47.1884 19.5371L47.1862 20.4365L45.3873 20.4323Z"/>
<path d="M48.1462 23.1767C48.1453 23.5922 48.2214 23.906 48.3748 24.1181C48.5281 24.3302 48.7468 24.4365 49.0309 24.4372C49.2255 24.4377 49.3854 24.3953 49.5105 24.3102C49.6356 24.225 49.7234 24.0983 49.7737 23.9301L50.8189 24.0233C50.5147 24.7958 49.8996 25.181 48.9739 25.1787C48.3322 25.1772 47.8395 24.986 47.4959 24.6052C47.1522 24.2243 46.9813 23.6696 46.983 22.9411C46.9847 22.2363 47.1609 21.6949 47.5116 21.3171C47.8623 20.9392 48.3585 20.751 49.0002 20.7525C49.613 20.754 50.0806 20.9583 50.4032 21.3654C50.7257 21.7725 50.886 22.3679 50.8841 23.1516L50.8841 23.1832L48.1462 23.1767ZM49.8127 22.4863C49.7925 22.1417 49.7102 21.8831 49.566 21.7105C49.4218 21.5379 49.2273 21.4513 48.9828 21.4507C48.7224 21.4501 48.5216 21.5404 48.3805 21.7215C48.2394 21.9026 48.1645 22.1563 48.1558 22.4824L49.8127 22.4863Z"/>
<path d="M53.3961 23.5639L52.3904 25.108L51.2109 25.1052L52.7783 22.9036L51.296 20.8369L52.4913 20.8397L53.3993 22.2384L54.3099 20.8441L55.5132 20.8469L54.021 22.8948L55.5898 25.1156L54.3866 25.1127L53.3961 23.5639Z"/>
<path d="M57.1992 25.1983C56.7863 25.1973 56.4643 25.0841 56.2334 24.8587C56.0025 24.6333 55.8876 24.3168 55.8885 23.9091C55.8896 23.4673 56.0344 23.1323 56.3229 22.9042C56.6114 22.6761 57.0292 22.5574 57.5763 22.5482L58.4955 22.5346L58.496 22.3176C58.4967 22.0388 58.4485 21.8316 58.3515 21.6959C58.2546 21.5603 58.0956 21.4922 57.8747 21.4916C57.6696 21.4911 57.5189 21.5375 57.4227 21.6306C57.3264 21.7237 57.2662 21.8781 57.2421 22.0937L56.0863 22.0357C56.233 21.1918 56.8454 20.7712 57.9237 20.7738C58.4629 20.775 58.8781 20.9088 59.1694 21.1752C59.4607 21.4415 59.6058 21.8192 59.6046 22.3084L59.6009 23.8627C59.6003 24.1021 59.6269 24.2672 59.6806 24.358C59.7343 24.4489 59.8243 24.4945 59.9505 24.4948C60.0347 24.495 60.1162 24.4873 60.1951 24.4717L60.1937 25.0713C60.0569 25.1052 59.9398 25.1306 59.8424 25.1474C59.7451 25.1643 59.6254 25.1725 59.4834 25.1722C59.2046 25.1715 58.999 25.1027 58.8665 24.9656C58.734 24.8285 58.6549 24.6271 58.6292 24.3614L58.6056 24.3614C58.4497 24.6398 58.2546 24.8491 58.0202 24.9892C57.7858 25.1294 57.5121 25.1991 57.1992 25.1983ZM58.4941 23.1461L57.926 23.1526C57.6656 23.1651 57.4827 23.1923 57.3774 23.2341C57.2695 23.2812 57.1871 23.352 57.1303 23.4466C57.0736 23.5411 57.045 23.6673 57.0446 23.8251C57.0441 24.0276 57.0905 24.1783 57.1836 24.2771C57.2767 24.376 57.4009 24.4256 57.5561 24.426C57.7296 24.4264 57.8889 24.3794 58.0337 24.2851C58.176 24.1907 58.2881 24.0602 58.37 23.8933C58.4519 23.7265 58.4931 23.5498 58.4935 23.363L58.4941 23.1461Z"/>
<path d="M64.3072 23.8897C64.3062 24.3026 64.1365 24.6264 63.798 24.861C63.4595 25.0955 62.9917 25.2121 62.3947 25.2107C61.8082 25.2093 61.3594 25.1155 61.0482 24.9294C60.7369 24.7432 60.5305 24.4541 60.4289 24.062L61.4036 23.9183C61.4584 24.121 61.5534 24.2645 61.6886 24.349C61.8239 24.4335 62.0598 24.4761 62.3964 24.4769C62.7068 24.4777 62.9331 24.4388 63.0753 24.3602C63.2175 24.2816 63.2888 24.1582 63.2892 23.9899C63.2895 23.8531 63.2326 23.7445 63.1183 23.664C63.0041 23.5835 62.8103 23.5153 62.5369 23.4595C62.3293 23.4169 62.1433 23.3757 61.979 23.3358C61.8147 23.296 61.6741 23.2569 61.5572 23.2184C61.4402 23.18 61.345 23.1436 61.2714 23.1093C61.0534 23.0009 60.8874 22.8625 60.7734 22.6939C60.6594 22.5253 60.6027 22.3174 60.6033 22.0702C60.6042 21.6625 60.7621 21.3453 61.0769 21.1186C61.3918 20.8918 61.8372 20.7791 62.4131 20.7805C62.9207 20.7817 63.3288 20.8813 63.6373 21.0793C63.9459 21.2773 64.1379 21.5631 64.2133 21.9367L63.2307 22.037C63.1996 21.8633 63.1223 21.7336 62.9989 21.6478C62.8755 21.5621 62.6796 21.5188 62.4114 21.5182C62.1484 21.5176 61.9511 21.5506 61.8194 21.6174C61.6877 21.6842 61.6217 21.7964 61.6213 21.9542C61.621 22.0778 61.6714 22.1759 61.7725 22.2485C61.8736 22.3211 62.0438 22.3813 62.283 22.4292C62.6168 22.4984 62.9132 22.5694 63.1721 22.6424C63.4309 22.7153 63.6392 22.8019 63.7967 22.9023C63.9517 23.0026 64.0756 23.1311 64.1686 23.2878C64.2616 23.4445 64.3078 23.6451 64.3072 23.8897Z"/>
<path d="M66.3405 24.8808C66.3397 25.1964 66.3055 25.4751 66.2379 25.7169C66.1703 25.9587 66.0612 26.1833 65.9108 26.3907L65.181 26.389C65.3366 26.2026 65.4634 25.9978 65.5612 25.7745C65.659 25.5512 65.7082 25.3396 65.7087 25.1397L65.1998 25.1385L65.2026 23.9353L66.3427 23.938L66.3405 24.8808Z"/>
<path d="M73.8138 24.2595L73.8117 25.159L69.6655 25.1491L69.6787 19.5906L70.8425 19.5934L70.8314 24.2524L73.8138 24.2595Z"/>
<path d="M78.749 24.2713L78.7468 25.1707L74.6007 25.1608L74.6139 19.6024L75.7777 19.6051L75.7666 24.2642L78.749 24.2713Z"/>
<path d="M82.1336 24.3424C82.8385 24.3441 83.3272 23.9929 83.5997 23.2887L84.6127 23.6737C84.3931 24.2097 84.072 24.6081 83.6492 24.8688C83.2265 25.1294 82.7206 25.2591 82.1314 25.2577C81.5371 25.2563 81.0311 25.1413 80.6134 24.9128C80.1958 24.6843 79.8777 24.3542 79.6591 23.9223C79.4405 23.4905 79.332 22.9721 79.3334 22.3672C79.3349 21.7571 79.4413 21.2418 79.6527 20.8215C79.8641 20.4012 80.1752 20.0818 80.586 19.8631C80.9968 19.6445 81.4994 19.5359 82.0938 19.5373C82.746 19.5389 83.277 19.671 83.6866 19.9336C84.0963 20.1963 84.3833 20.5816 84.5478 21.0896L83.5214 21.3673C83.4353 21.0883 83.2656 20.8663 83.0122 20.7013C82.7588 20.5363 82.4598 20.4534 82.1153 20.4526C81.5893 20.4514 81.1898 20.6135 80.9168 20.9389C80.6438 21.2644 80.5066 21.7414 80.5051 22.37C80.5041 22.7961 80.5657 23.1552 80.6899 23.4474C80.8141 23.7397 80.9977 23.9617 81.2406 24.1135C81.4835 24.2653 81.7812 24.3416 82.1336 24.3424Z"/>
</g>
</g>
</svg>
