<?xml version="1.0" encoding="UTF-8" standalone="no"?>
<!DOCTYPE svg PUBLIC "-//W3C//DTD SVG 1.1//EN" "http://www.w3.org/Graphics/SVG/1.1/DTD/svg11.dtd">
<!-- Created with Vectornator (http://vectornator.io/) -->
<svg height="100%" stroke-miterlimit="10" style="fill-rule:nonzero;clip-rule:evenodd;stroke-linecap:round;stroke-linejoin:round;" version="1.1" viewBox="0 0 128 128" width="100%" xml:space="preserve" xmlns="http://www.w3.org/2000/svg" xmlns:vectornator="http://vectornator.io" xmlns:xlink="http://www.w3.org/1999/xlink">
<defs/>
<g id="layer4" vectornator:layerName="layer4">
<path d="M4.97177 15.2764L4.97177 67.1124L15.8246 67.1124L15.8246 47.4302L28.5536 47.4302L40.5763 67.0976L33.7483 85.8013L45.0573 85.8013L49.8546 71.998L70.4418 71.998L75.2097 85.713L75.2097 112.724L86.0551 112.724L86.0551 93.0414L98.7842 93.0414L110.814 112.724L123.028 112.724L109.012 90.9444C112.518 90.1106 115.303 88.381 117.363 85.7571C119.423 83.1087 120.453 79.9758 120.453 76.3464C120.453 71.3683 118.772 67.5535 115.413 64.905C112.053 62.232 107.282 60.895 101.102 60.895L77.3876 60.895L66.7997 31.7727L53.4599 31.7727L44.991 54.9867L38.781 45.3332C42.2883 44.4993 45.072 42.7702 47.1322 40.1459C49.1924 37.4971 50.2225 34.3577 50.2225 30.7279C50.2225 25.7491 48.5424 21.9353 45.1823 19.2864C41.8223 16.6131 37.0519 15.2764 30.8713 15.2764L4.97177 15.2764ZM15.8246 23.7011L29.7309 23.7011C32.9193 23.7011 35.3106 24.3266 36.9048 25.5774C38.499 26.8282 39.2961 28.6922 39.2961 31.1693C39.2961 33.6465 38.5112 35.5718 36.9416 36.9452C35.3719 38.3187 33.0664 39.0054 30.0252 39.0054L15.8246 39.0054L15.8246 23.7011ZM60.1335 40.0944C60.4658 41.1425 60.7832 42.1993 61.09 43.273C61.3967 44.3466 61.7254 45.4108 62.0833 46.4589L67.9107 63.485L52.3857 63.485L58.0585 46.8047C58.2631 46.2168 58.5991 45.2049 59.0592 43.7733C59.5194 42.3418 59.8778 41.1169 60.1335 40.0944ZM86.0551 69.3197L99.9614 69.3197C103.149 69.3197 105.541 69.9453 107.135 71.196C108.729 72.4466 109.527 74.3111 109.527 76.7879C109.527 79.2647 108.742 81.1905 107.172 82.5638C105.603 83.9371 103.297 84.6167 100.256 84.6167L86.0551 84.6167L86.0551 69.3197Z" fill="#bf0d3e" fill-rule="nonzero" opacity="1" stroke="none" vectornator:layerName="path"/>
</g>
</svg>
